<?xml version="1.0" encoding="UTF-8" standalone="no"?>
<!DOCTYPE svg PUBLIC "-//W3C//DTD SVG 1.1//EN"
 "http://www.w3.org/Graphics/SVG/1.1/DTD/svg11.dtd">
<!-- Generated by graphviz version 2.49.3 (0)
 -->
<!-- Title: G Pages: 1 -->
<svg width="289pt" height="116pt"
 viewBox="0.00 0.00 288.89 116.00" xmlns="http://www.w3.org/2000/svg" xmlns:xlink="http://www.w3.org/1999/xlink">
<g id="graph0" class="graph" transform="scale(1 1) rotate(0) translate(4 112)">
<title>G</title>
<!-- php&#45;fpm -->
<g id="node1" class="node">
<title>php&#45;fpm</title>
<ellipse fill="grey" stroke="grey" cx="139.3" cy="-90" rx="46.59" ry="18"/>
<text text-anchor="middle" x="139.3" y="-86.3" font-family="sans-serif" font-size="14.00" fill="white">php&#45;fpm</text>
</g>
<!-- script1 -->
<g id="node2" class="node">
<title>script1</title>
<ellipse fill="grey" stroke="grey" cx="40.3" cy="-18" rx="40.09" ry="18"/>
<text text-anchor="middle" x="40.3" y="-14.3" font-family="sans-serif" font-size="14.00" fill="white">script1</text>
</g>
<!-- php&#45;fpm&#45;&gt;script1 -->
<g id="edge1" class="edge">
<title>php&#45;fpm&#45;&gt;script1</title>
<path fill="none" stroke="lightgrey" d="M117.81,-73.81C103.61,-63.77 84.82,-50.48 69.3,-39.5"/>
<polygon fill="lightgrey" stroke="lightgrey" points="71.24,-36.6 61.06,-33.68 67.2,-42.31 71.24,-36.6"/>
</g>
<!-- script2 -->
<g id="node3" class="node">
<title>script2</title>
<ellipse fill="grey" stroke="grey" cx="139.3" cy="-18" rx="40.09" ry="18"/>
<text text-anchor="middle" x="139.3" y="-14.3" font-family="sans-serif" font-size="14.00" fill="white">script2</text>
</g>
<!-- php&#45;fpm&#45;&gt;script2 -->
<g id="edge2" class="edge">
<title>php&#45;fpm&#45;&gt;script2</title>
<path fill="none" stroke="lightgrey" d="M139.3,-71.7C139.3,-63.98 139.3,-54.71 139.3,-46.11"/>
<polygon fill="lightgrey" stroke="lightgrey" points="142.8,-46.1 139.3,-36.1 135.8,-46.1 142.8,-46.1"/>
</g>
<!-- scriptN -->
<g id="node4" class="node">
<title>scriptN</title>
<ellipse fill="grey" stroke="grey" cx="239.3" cy="-18" rx="41.69" ry="18"/>
<text text-anchor="middle" x="239.3" y="-14.3" font-family="sans-serif" font-size="14.00" fill="white">scriptN</text>
</g>
<!-- php&#45;fpm&#45;&gt;scriptN -->
<g id="edge3" class="edge">
<title>php&#45;fpm&#45;&gt;scriptN</title>
<path fill="none" stroke="lightgrey" d="M160.99,-73.81C175.34,-63.77 194.32,-50.48 210,-39.5"/>
<polygon fill="lightgrey" stroke="lightgrey" points="212.14,-42.28 218.33,-33.68 208.13,-36.55 212.14,-42.28"/>
</g>
</g>
</svg>
