<?xml version="1.0" encoding="UTF-8" standalone="no"?>
<!DOCTYPE svg PUBLIC "-//W3C//DTD SVG 1.1//EN"
 "http://www.w3.org/Graphics/SVG/1.1/DTD/svg11.dtd">
<!-- Generated by graphviz version 2.49.3 (0)
 -->
<!-- Title: G Pages: 1 -->
<svg width="328pt" height="116pt"
 viewBox="0.00 0.00 327.89 116.00" xmlns="http://www.w3.org/2000/svg" xmlns:xlink="http://www.w3.org/1999/xlink">
<g id="graph0" class="graph" transform="scale(1 1) rotate(0) translate(4 112)">
<title>G</title>
<!-- php&#45;fpm -->
<g id="node1" class="node">
<title>php&#45;fpm</title>
<ellipse fill="grey" stroke="grey" cx="158.8" cy="-90" rx="46.59" ry="18"/>
<text text-anchor="middle" x="158.8" y="-86.3" font-family="sans-serif" font-size="14.00" fill="white">php&#45;fpm</text>
</g>
<!-- worker1 -->
<g id="node2" class="node">
<title>worker1</title>
<ellipse fill="grey" stroke="grey" cx="46.8" cy="-18" rx="46.59" ry="18"/>
<text text-anchor="middle" x="46.8" y="-14.3" font-family="sans-serif" font-size="14.00" fill="white">worker1</text>
</g>
<!-- php&#45;fpm&#45;&gt;worker1 -->
<g id="edge1" class="edge">
<title>php&#45;fpm&#45;&gt;worker1</title>
<path fill="none" stroke="lightgrey" d="M135.32,-74.33C119.04,-64.15 97.15,-50.47 79.21,-39.26"/>
<polygon fill="lightgrey" stroke="lightgrey" points="80.58,-35.99 70.24,-33.65 76.87,-41.92 80.58,-35.99"/>
</g>
<!-- worker2 -->
<g id="node3" class="node">
<title>worker2</title>
<ellipse fill="grey" stroke="grey" cx="158.8" cy="-18" rx="46.59" ry="18"/>
<text text-anchor="middle" x="158.8" y="-14.3" font-family="sans-serif" font-size="14.00" fill="white">worker2</text>
</g>
<!-- php&#45;fpm&#45;&gt;worker2 -->
<g id="edge2" class="edge">
<title>php&#45;fpm&#45;&gt;worker2</title>
<path fill="none" stroke="lightgrey" d="M158.8,-71.7C158.8,-63.98 158.8,-54.71 158.8,-46.11"/>
<polygon fill="lightgrey" stroke="lightgrey" points="162.3,-46.1 158.8,-36.1 155.3,-46.1 162.3,-46.1"/>
</g>
<!-- workerN -->
<g id="node4" class="node">
<title>workerN</title>
<ellipse fill="grey" stroke="grey" cx="271.8" cy="-18" rx="48.19" ry="18"/>
<text text-anchor="middle" x="271.8" y="-14.3" font-family="sans-serif" font-size="14.00" fill="white">workerN</text>
</g>
<!-- php&#45;fpm&#45;&gt;workerN -->
<g id="edge3" class="edge">
<title>php&#45;fpm&#45;&gt;workerN</title>
<path fill="none" stroke="lightgrey" d="M182.48,-74.33C198.95,-64.13 221.1,-50.41 239.22,-39.18"/>
<polygon fill="lightgrey" stroke="lightgrey" points="241.09,-42.14 247.75,-33.9 237.41,-36.19 241.09,-42.14"/>
</g>
</g>
</svg>
