<?xml version="1.0" encoding="UTF-8" standalone="no"?>
<!DOCTYPE svg PUBLIC "-//W3C//DTD SVG 1.1//EN"
 "http://www.w3.org/Graphics/SVG/1.1/DTD/svg11.dtd">
<!-- Generated by graphviz version 2.49.3 (0)
 -->
<!-- Title: G Pages: 1 -->
<svg width="360pt" height="171pt"
 viewBox="0.00 0.00 360.00 171.00" xmlns="http://www.w3.org/2000/svg" xmlns:xlink="http://www.w3.org/1999/xlink">
<g id="graph0" class="graph" transform="scale(1 1) rotate(0) translate(4 167)">
<title>G</title>
<g id="clust1" class="cluster">
<title>clusterprocess</title>
<polygon fill="transparent" stroke="lightgrey" points="8,-8 8,-155 344,-155 344,-8 8,-8"/>
<text text-anchor="middle" x="176" y="-139.8" font-family="sans-serif" font-size="14.00" fill="white">java process</text>
</g>
<!-- main -->
<g id="node1" class="node">
<title>main</title>
<ellipse fill="grey" stroke="grey" cx="175" cy="-106" rx="32.49" ry="18"/>
<text text-anchor="middle" x="175" y="-102.3" font-family="sans-serif" font-size="14.00" fill="white">main</text>
</g>
<!-- worker1 -->
<g id="node2" class="node">
<title>worker1</title>
<ellipse fill="grey" stroke="grey" cx="63" cy="-34" rx="46.59" ry="18"/>
<text text-anchor="middle" x="63" y="-30.3" font-family="sans-serif" font-size="14.00" fill="white">worker1</text>
</g>
<!-- main&#45;&gt;worker1 -->
<g id="edge1" class="edge">
<title>main&#45;&gt;worker1</title>
<path fill="none" stroke="lightgrey" d="M154.2,-92C137.59,-81.62 114.05,-66.91 95.05,-55.03"/>
<polygon fill="lightgrey" stroke="lightgrey" points="96.74,-51.96 86.4,-49.63 93.03,-57.89 96.74,-51.96"/>
</g>
<!-- worker2 -->
<g id="node3" class="node">
<title>worker2</title>
<ellipse fill="grey" stroke="grey" cx="175" cy="-34" rx="46.59" ry="18"/>
<text text-anchor="middle" x="175" y="-30.3" font-family="sans-serif" font-size="14.00" fill="white">worker2</text>
</g>
<!-- main&#45;&gt;worker2 -->
<g id="edge2" class="edge">
<title>main&#45;&gt;worker2</title>
<path fill="none" stroke="lightgrey" d="M175,-87.7C175,-79.98 175,-70.71 175,-62.11"/>
<polygon fill="lightgrey" stroke="lightgrey" points="178.5,-62.1 175,-52.1 171.5,-62.1 178.5,-62.1"/>
</g>
<!-- workerN -->
<g id="node4" class="node">
<title>workerN</title>
<ellipse fill="grey" stroke="grey" cx="288" cy="-34" rx="48.19" ry="18"/>
<text text-anchor="middle" x="288" y="-30.3" font-family="sans-serif" font-size="14.00" fill="white">workerN</text>
</g>
<!-- main&#45;&gt;workerN -->
<g id="edge3" class="edge">
<title>main&#45;&gt;workerN</title>
<path fill="none" stroke="lightgrey" d="M195.99,-92C212.63,-81.69 236.18,-67.1 255.29,-55.26"/>
<polygon fill="lightgrey" stroke="lightgrey" points="257.33,-58.12 263.99,-49.87 253.64,-52.16 257.33,-58.12"/>
</g>
</g>
</svg>
