<?xml version="1.0" encoding="UTF-8" standalone="no"?>
<!DOCTYPE svg PUBLIC "-//W3C//DTD SVG 1.1//EN"
 "http://www.w3.org/Graphics/SVG/1.1/DTD/svg11.dtd">
<!-- Generated by graphviz version 2.49.3 (0)
 -->
<!-- Title: G Pages: 1 -->
<svg width="360pt" height="171pt"
 viewBox="0.00 0.00 360.00 171.00" xmlns="http://www.w3.org/2000/svg" xmlns:xlink="http://www.w3.org/1999/xlink">
<g id="graph0" class="graph" transform="scale(1 1) rotate(0) translate(4 167)">
<title>G</title>
<g id="clust1" class="cluster">
<title>clusterprocess</title>
<polygon fill="transparent" stroke="black" points="8,-8 8,-155 344,-155 344,-8 8,-8"/>
<text text-anchor="middle" x="176" y="-139.8" font-family="Times,serif" font-size="14.00">java process</text>
</g>
<!-- java -->
<g id="node1" class="node">
<title>java</title>
<ellipse fill="grey" stroke="grey" cx="175" cy="-106" rx="27.1" ry="18"/>
<text text-anchor="middle" x="175" y="-102.3" font-family="sans-serif" font-size="14.00" fill="white">java</text>
</g>
<!-- worker1 -->
<g id="node2" class="node">
<title>worker1</title>
<ellipse fill="grey" stroke="grey" cx="63" cy="-34" rx="46.59" ry="18"/>
<text text-anchor="middle" x="63" y="-30.3" font-family="sans-serif" font-size="14.00" fill="white">worker1</text>
</g>
<!-- java&#45;&gt;worker1 -->
<g id="edge1" class="edge">
<title>java&#45;&gt;worker1</title>
<path fill="none" stroke="lightgrey" d="M155.75,-92.97C139.15,-82.59 114.84,-67.4 95.28,-55.17"/>
<polygon fill="lightgrey" stroke="lightgrey" points="97,-52.12 86.67,-49.79 93.29,-58.06 97,-52.12"/>
</g>
<!-- worker2 -->
<g id="node3" class="node">
<title>worker2</title>
<ellipse fill="grey" stroke="grey" cx="175" cy="-34" rx="46.59" ry="18"/>
<text text-anchor="middle" x="175" y="-30.3" font-family="sans-serif" font-size="14.00" fill="white">worker2</text>
</g>
<!-- java&#45;&gt;worker2 -->
<g id="edge2" class="edge">
<title>java&#45;&gt;worker2</title>
<path fill="none" stroke="lightgrey" d="M175,-87.7C175,-79.98 175,-70.71 175,-62.11"/>
<polygon fill="lightgrey" stroke="lightgrey" points="178.5,-62.1 175,-52.1 171.5,-62.1 178.5,-62.1"/>
</g>
<!-- workerN -->
<g id="node4" class="node">
<title>workerN</title>
<ellipse fill="grey" stroke="grey" cx="288" cy="-34" rx="48.19" ry="18"/>
<text text-anchor="middle" x="288" y="-30.3" font-family="sans-serif" font-size="14.00" fill="white">workerN</text>
</g>
<!-- java&#45;&gt;workerN -->
<g id="edge3" class="edge">
<title>java&#45;&gt;workerN</title>
<path fill="none" stroke="lightgrey" d="M194.17,-93.13C210.88,-82.77 235.47,-67.54 255.29,-55.26"/>
<polygon fill="lightgrey" stroke="lightgrey" points="257.35,-58.1 264.01,-49.86 253.67,-52.15 257.35,-58.1"/>
</g>
</g>
</svg>
